<svg width="1589" height="361" viewBox="0 0 1589 361" fill="none" xmlns="http://www.w3.org/2000/svg">
<path d="M3.46054 1.24126H16.1062V175.018H3.46054V1.24126Z" fill="#E1D3C1"/>
<path d="M248.172 188.423C243.048 194.878 237.014 199.76 230.071 203.07C223.129 206.38 215.525 208.035 207.26 208.035C197.672 208.035 188.332 205.553 179.241 200.588C170.314 195.623 160.479 187.513 149.734 176.259C132.708 176.259 117.335 172.452 103.615 164.839C90.0598 157.061 79.3978 146.469 71.6286 133.063C63.8594 119.658 59.9747 104.68 59.9747 88.1295C59.9747 71.5794 63.8594 56.6015 71.6286 43.1959C79.5631 29.7903 90.3904 19.2809 104.111 11.6678C117.831 3.88928 133.204 0 150.23 0C167.256 0 182.629 3.80653 196.35 11.4196C210.07 19.0327 220.814 29.542 228.584 42.9476C236.518 56.3532 240.485 71.4139 240.485 88.1295C240.485 103.025 237.262 116.679 230.815 129.091C224.534 141.338 215.773 151.517 204.532 159.626C193.291 167.57 180.48 172.701 166.099 175.018C180.315 189.913 194.035 197.36 207.26 197.36C220.649 197.36 232.055 191.816 241.477 180.728L248.172 188.423ZM72.6204 88.1295C72.6204 102.363 76.0091 115.354 82.7865 127.105C89.5639 138.69 98.8209 147.876 110.557 154.661C122.459 161.281 135.683 164.591 150.23 164.591C164.777 164.591 177.918 161.281 189.655 154.661C201.391 147.876 210.648 138.69 217.426 127.105C224.203 115.354 227.592 102.363 227.592 88.1295C227.592 73.8964 224.203 60.9873 217.426 49.4022C210.648 37.6516 201.391 28.4662 189.655 21.8462C177.918 15.0606 164.777 11.6678 150.23 11.6678C135.683 11.6678 122.459 15.0606 110.557 21.8462C98.8209 28.4662 89.5639 37.6516 82.7865 49.4022C76.0091 60.9873 72.6204 73.8964 72.6204 88.1295Z" fill="#E1D3C1"/>
<path d="M274.048 176.011C271.238 176.011 268.759 175.018 266.61 173.032C264.626 170.88 263.634 168.315 263.634 165.336C263.634 162.357 264.626 159.874 266.61 157.888C268.759 155.902 271.238 154.909 274.048 154.909C276.858 154.909 279.255 155.902 281.239 157.888C283.388 159.874 284.462 162.357 284.462 165.336C284.462 168.315 283.388 170.88 281.239 173.032C279.255 175.018 276.858 176.011 274.048 176.011Z" fill="#E1D3C1"/>
<path d="M444.982 126.112H344.312L322.244 175.018H308.607L388.448 1.24126H401.094L480.935 175.018H467.298L444.982 126.112ZM440.271 115.437L394.647 15.1434L349.271 115.437H440.271Z" fill="#E1D3C1"/>
<path d="M583.418 176.259C566.392 176.259 551.018 172.452 537.298 164.839C523.743 157.226 512.999 146.717 505.064 133.311C497.295 119.906 493.41 104.845 493.41 88.1295C493.41 71.4139 497.295 56.3532 505.064 42.9476C512.999 29.542 523.743 19.0327 537.298 11.4196C551.018 3.80653 566.392 0 583.418 0C595.981 0 607.552 2.06877 618.131 6.20631C628.711 10.1783 637.72 16.1364 645.158 24.0805L637.224 32.2728C623.338 18.5362 605.568 11.6678 583.914 11.6678C569.367 11.6678 556.143 14.9779 544.241 21.5979C532.339 28.218 523 37.4033 516.222 49.1539C509.445 60.739 506.056 73.7309 506.056 88.1295C506.056 102.528 509.445 115.603 516.222 127.353C523 138.938 532.339 148.041 544.241 154.661C556.143 161.281 569.367 164.591 583.914 164.591C605.403 164.591 623.173 157.64 637.224 143.738L645.158 151.93C637.72 159.874 628.628 165.915 617.883 170.053C607.304 174.19 595.815 176.259 583.418 176.259Z" fill="#E1D3C1"/>
<path d="M790.277 126.112H689.608L667.54 175.018H653.903L733.744 1.24126H746.389L826.231 175.018H812.593L790.277 126.112ZM785.566 115.437L739.943 15.1434L694.567 115.437H785.566Z" fill="#E1D3C1"/>
<path d="M857.74 1.24126H926.424C944.442 1.24126 960.393 4.96504 974.279 12.4126C988.33 19.8602 999.24 30.204 1007.01 43.4441C1014.78 56.5187 1018.66 71.4139 1018.66 88.1295C1018.66 104.845 1014.78 119.823 1007.01 133.063C999.24 146.138 988.33 156.399 974.279 163.846C960.393 171.294 944.442 175.018 926.424 175.018H857.74V1.24126ZM925.432 163.598C941.466 163.598 955.6 160.454 967.832 154.165C980.064 147.71 989.487 138.773 996.099 127.353C1002.71 115.934 1006.02 102.859 1006.02 88.1295C1006.02 73.3999 1002.71 60.3253 996.099 48.9057C989.487 37.4861 980.064 28.6318 967.832 22.3427C955.6 15.8881 941.466 12.6609 925.432 12.6609H870.386V163.598H925.432Z" fill="#E1D3C1"/>
<path d="M1182.35 163.598V175.018H1062.59V1.24126H1178.64V12.6609H1075.24V81.1785H1167.73V92.3498H1075.24V163.598H1182.35Z" fill="#E1D3C1"/>
<path d="M1392.61 175.018L1392.36 26.3147L1319.71 151.93H1313.51L1240.86 26.8112V175.018H1228.46V1.24126H1239.12L1316.73 135.546L1394.34 1.24126H1404.76L1405 175.018H1392.61Z" fill="#E1D3C1"/>
<path d="M1519.08 115.189V175.018H1506.43V115.189L1436.51 1.24126H1450.39L1513.13 103.521L1575.86 1.24126H1589L1519.08 115.189Z" fill="#E1D3C1"/>
<path d="M0 268.112H5.26903V335.761H46.9047V340.519H0V268.112Z" fill="#E1D3C1"/>
<path d="M103.435 314.763H57.0472C57.185 318.97 58.2526 322.728 60.25 326.038C62.2474 329.279 64.9335 331.796 68.3085 333.589C71.7523 335.382 75.6094 336.278 79.8797 336.278C83.3924 336.278 86.6295 335.658 89.5912 334.416C92.6218 333.106 95.1357 331.21 97.1332 328.727L100.129 332.141C97.7875 334.968 94.8258 337.14 91.2442 338.657C87.7316 340.174 83.9089 340.933 79.7764 340.933C74.404 340.933 69.6171 339.761 65.4157 337.416C61.2142 335.071 57.9082 331.83 55.4975 327.693C53.1557 323.555 51.9848 318.832 51.9848 313.522C51.9848 308.281 53.0868 303.592 55.2909 299.454C57.5638 295.248 60.6632 291.972 64.5892 289.627C68.5151 287.283 72.9232 286.111 77.8134 286.111C82.7036 286.111 87.0772 287.283 90.9343 289.627C94.8602 291.903 97.9252 295.11 100.129 299.247C102.402 303.385 103.539 308.074 103.539 313.315L103.435 314.763ZM77.8134 290.662C74.0252 290.662 70.6158 291.524 67.5853 293.248C64.5547 294.903 62.1096 297.282 60.25 300.385C58.4592 303.419 57.426 306.867 57.1505 310.729H98.4762C98.2696 306.867 97.2365 303.419 95.3768 300.385C93.5172 297.351 91.0721 294.972 88.0415 293.248C85.011 291.524 81.6016 290.662 77.8134 290.662Z" fill="#E1D3C1"/>
<path d="M136.189 286.111C142.87 286.111 148.001 287.835 151.583 291.283C155.165 294.661 156.955 299.661 156.955 306.281V340.519H151.996V330.899C150.274 334.072 147.76 336.554 144.454 338.347C141.148 340.071 137.188 340.933 132.573 340.933C126.581 340.933 121.828 339.519 118.316 336.692C114.872 333.865 113.15 330.141 113.15 325.521C113.15 321.038 114.734 317.418 117.903 314.66C121.14 311.832 126.271 310.419 133.296 310.419H151.79V306.074C151.79 301.04 150.412 297.213 147.657 294.593C144.971 291.972 141.011 290.662 135.776 290.662C132.194 290.662 128.751 291.283 125.444 292.524C122.207 293.765 119.452 295.42 117.179 297.489L114.596 293.765C117.283 291.351 120.52 289.49 124.308 288.179C128.096 286.8 132.057 286.111 136.189 286.111ZM133.296 336.692C137.773 336.692 141.562 335.658 144.661 333.589C147.829 331.52 150.205 328.52 151.79 324.59V314.453H133.4C128.096 314.453 124.239 315.418 121.828 317.349C119.487 319.28 118.316 321.935 118.316 325.314C118.316 328.831 119.624 331.624 122.242 333.692C124.859 335.692 128.544 336.692 133.296 336.692Z" fill="#E1D3C1"/>
<path d="M183.198 298.316C184.851 294.386 187.434 291.386 190.947 289.317C194.459 287.179 198.73 286.111 203.758 286.111V291.179L202.518 291.076C196.526 291.076 191.842 292.972 188.467 296.765C185.092 300.489 183.405 305.695 183.405 312.384V340.519H178.239V286.524H183.198V298.316Z" fill="#E1D3C1"/>
<path d="M244.336 286.111C251.086 286.111 256.424 288.076 260.35 292.007C264.275 295.937 266.238 301.592 266.238 308.97V340.519H261.073V309.384C261.073 303.316 259.523 298.696 256.424 295.523C253.393 292.351 249.123 290.765 243.613 290.765C237.276 290.765 232.282 292.662 228.632 296.454C224.982 300.247 223.156 305.35 223.156 311.763V340.519H217.991V286.524H222.95V298.213C224.809 294.42 227.564 291.455 231.215 289.317C234.934 287.179 239.308 286.111 244.336 286.111Z" fill="#E1D3C1"/>
<path d="M287.506 286.524H292.672V340.519H287.506V286.524ZM290.089 273.388C288.918 273.388 287.919 273.008 287.093 272.25C286.266 271.422 285.853 270.422 285.853 269.25C285.853 268.078 286.266 267.078 287.093 266.25C287.919 265.423 288.918 265.009 290.089 265.009C291.26 265.009 292.258 265.423 293.085 266.25C293.911 267.009 294.325 267.974 294.325 269.147C294.325 270.319 293.911 271.319 293.085 272.146C292.258 272.974 291.26 273.388 290.089 273.388Z" fill="#E1D3C1"/>
<path d="M340.789 286.111C347.539 286.111 352.877 288.076 356.803 292.007C360.729 295.937 362.692 301.592 362.692 308.97V340.519H357.526V309.384C357.526 303.316 355.977 298.696 352.877 295.523C349.847 292.351 345.576 290.765 340.066 290.765C333.73 290.765 328.736 292.662 325.086 296.454C321.435 300.247 319.61 305.35 319.61 311.763V340.519H314.444V286.524H319.403V298.213C321.263 294.42 324.018 291.455 327.668 289.317C331.388 287.179 335.761 286.111 340.789 286.111Z" fill="#E1D3C1"/>
<path d="M432.618 286.524V334.727C432.618 343.691 430.448 350.311 426.109 354.587C421.77 358.862 415.227 361 406.479 361C401.52 361 396.837 360.241 392.429 358.724C388.021 357.207 384.474 355.104 381.787 352.415L384.577 348.484C387.263 350.966 390.5 352.897 394.288 354.276C398.077 355.656 402.106 356.345 406.376 356.345C413.539 356.345 418.843 354.621 422.287 351.173C425.73 347.794 427.452 342.519 427.452 335.347V326.245C425.248 330.175 422.183 333.21 418.257 335.347C414.331 337.485 409.923 338.554 405.033 338.554C400.005 338.554 395.425 337.451 391.292 335.244C387.229 332.968 384.026 329.831 381.684 325.831C379.342 321.831 378.171 317.314 378.171 312.28C378.171 307.246 379.342 302.73 381.684 298.73C384.026 294.73 387.229 291.627 391.292 289.421C395.425 287.214 400.005 286.111 405.033 286.111C409.992 286.111 414.469 287.214 418.464 289.421C422.459 291.627 425.524 294.73 427.659 298.73V286.524H432.618ZM405.446 333.899C409.648 333.899 413.436 333.003 416.811 331.21C420.186 329.348 422.803 326.796 424.663 323.555C426.591 320.245 427.556 316.487 427.556 312.28C427.556 308.074 426.591 304.35 424.663 301.109C422.803 297.868 420.186 295.351 416.811 293.558C413.436 291.696 409.648 290.765 405.446 290.765C401.245 290.765 397.457 291.696 394.082 293.558C390.776 295.351 388.158 297.868 386.23 301.109C384.37 304.35 383.44 308.074 383.44 312.28C383.44 316.487 384.37 320.245 386.23 323.555C388.158 326.796 390.776 329.348 394.082 331.21C397.457 333.003 401.245 333.899 405.446 333.899Z" fill="#E1D3C1"/>
<path d="M551.065 340.519L550.962 278.56L520.691 330.899H518.108L487.837 278.766V340.519H482.671V268.112H487.114L519.451 324.072L551.789 268.112H556.128L556.231 340.519H551.065Z" fill="#E1D3C1"/>
<path d="M597.976 286.111C604.657 286.111 609.788 287.835 613.37 291.283C616.951 294.661 618.742 299.661 618.742 306.281V340.519H613.783V330.899C612.061 334.072 609.547 336.554 606.241 338.347C602.935 340.071 598.974 340.933 594.36 340.933C588.367 340.933 583.615 339.519 580.102 336.692C576.658 333.865 574.937 330.141 574.937 325.521C574.937 321.038 576.521 317.418 579.689 314.66C582.926 311.832 588.057 310.419 595.083 310.419H613.576V306.074C613.576 301.04 612.199 297.213 609.444 294.593C606.757 291.972 602.797 290.662 597.562 290.662C593.981 290.662 590.537 291.283 587.231 292.524C583.994 293.765 581.239 295.42 578.966 297.489L576.383 293.765C579.069 291.351 582.306 289.49 586.095 288.179C589.883 286.8 593.843 286.111 597.976 286.111ZM595.083 336.692C599.56 336.692 603.348 335.658 606.447 333.589C609.616 331.52 611.992 328.52 613.576 324.59V314.453H595.186C589.883 314.453 586.026 315.418 583.615 317.349C581.273 319.28 580.102 321.935 580.102 325.314C580.102 328.831 581.411 331.624 584.028 333.692C586.646 335.692 590.33 336.692 595.083 336.692Z" fill="#E1D3C1"/>
<path d="M666.37 286.111C673.12 286.111 678.458 288.076 682.384 292.007C686.31 295.937 688.273 301.592 688.273 308.97V340.519H683.107V309.384C683.107 303.316 681.558 298.696 678.458 295.523C675.428 292.351 671.157 290.765 665.647 290.765C659.311 290.765 654.317 292.662 650.667 296.454C647.016 300.247 645.191 305.35 645.191 311.763V340.519H640.025V286.524H644.984V298.213C646.844 294.42 649.599 291.455 653.25 289.317C656.969 287.179 661.343 286.111 666.37 286.111Z" fill="#E1D3C1"/>
<path d="M727.724 286.111C734.405 286.111 739.536 287.835 743.118 291.283C746.699 294.661 748.49 299.661 748.49 306.281V340.519H743.531V330.899C741.809 334.072 739.295 336.554 735.989 338.347C732.683 340.071 728.723 340.933 724.108 340.933C718.116 340.933 713.363 339.519 709.85 336.692C706.407 333.865 704.685 330.141 704.685 325.521C704.685 321.038 706.269 317.418 709.437 314.66C712.674 311.832 717.806 310.419 724.831 310.419H743.324V306.074C743.324 301.04 741.947 297.213 739.192 294.593C736.506 291.972 732.545 290.662 727.311 290.662C723.729 290.662 720.285 291.283 716.979 292.524C713.742 293.765 710.987 295.42 708.714 297.489L706.131 293.765C708.817 291.351 712.054 289.49 715.843 288.179C719.631 286.8 723.591 286.111 727.724 286.111ZM724.831 336.692C729.308 336.692 733.096 335.658 736.196 333.589C739.364 331.52 741.74 328.52 743.324 324.59V314.453H724.934C719.631 314.453 715.774 315.418 713.363 317.349C711.021 319.28 709.85 321.935 709.85 325.314C709.85 328.831 711.159 331.624 713.776 333.692C716.394 335.692 720.079 336.692 724.831 336.692Z" fill="#E1D3C1"/>
<path d="M818.432 286.524V334.727C818.432 343.691 816.263 350.311 811.923 354.587C807.584 358.862 801.041 361 792.294 361C787.335 361 782.651 360.241 778.243 358.724C773.835 357.207 770.288 355.104 767.602 352.415L770.391 348.484C773.077 350.966 776.314 352.897 780.103 354.276C783.891 355.656 787.92 356.345 792.19 356.345C799.353 356.345 804.657 354.621 808.101 351.173C811.545 347.794 813.266 342.519 813.266 335.347V326.245C811.062 330.175 807.997 333.21 804.071 335.347C800.146 337.485 795.737 338.554 790.847 338.554C785.819 338.554 781.239 337.451 777.106 335.244C773.043 332.968 769.84 329.831 767.498 325.831C765.156 321.831 763.985 317.314 763.985 312.28C763.985 307.246 765.156 302.73 767.498 298.73C769.84 294.73 773.043 291.627 777.106 289.421C781.239 287.214 785.819 286.111 790.847 286.111C795.806 286.111 800.283 287.214 804.278 289.421C808.273 291.627 811.338 294.73 813.473 298.73V286.524H818.432ZM791.26 333.899C795.462 333.899 799.25 333.003 802.625 331.21C806 329.348 808.617 326.796 810.477 323.555C812.405 320.245 813.37 316.487 813.37 312.28C813.37 308.074 812.405 304.35 810.477 301.109C808.617 297.868 806 295.351 802.625 293.558C799.25 291.696 795.462 290.765 791.26 290.765C787.059 290.765 783.271 291.696 779.896 293.558C776.59 295.351 773.973 297.868 772.044 301.109C770.184 304.35 769.255 308.074 769.255 312.28C769.255 316.487 770.184 320.245 772.044 323.555C773.973 326.796 776.59 329.348 779.896 331.21C783.271 333.003 787.059 333.899 791.26 333.899Z" fill="#E1D3C1"/>
<path d="M885.859 314.763H839.471C839.609 318.97 840.676 322.728 842.674 326.038C844.671 329.279 847.357 331.796 850.732 333.589C854.176 335.382 858.033 336.278 862.304 336.278C865.816 336.278 869.053 335.658 872.015 334.416C875.046 333.106 877.56 331.21 879.557 328.727L882.553 332.141C880.211 334.968 877.25 337.14 873.668 338.657C870.155 340.174 866.333 340.933 862.2 340.933C856.828 340.933 852.041 339.761 847.84 337.416C843.638 335.071 840.332 331.83 837.921 327.693C835.58 323.555 834.409 318.832 834.409 313.522C834.409 308.281 835.511 303.592 837.715 299.454C839.988 295.248 843.087 291.972 847.013 289.627C850.939 287.283 855.347 286.111 860.237 286.111C865.127 286.111 869.501 287.283 873.358 289.627C877.284 291.903 880.349 295.11 882.553 299.247C884.826 303.385 885.963 308.074 885.963 313.315L885.859 314.763ZM860.237 290.662C856.449 290.662 853.04 291.524 850.009 293.248C846.979 294.903 844.534 297.282 842.674 300.385C840.883 303.419 839.85 306.867 839.574 310.729H880.9C880.693 306.867 879.66 303.419 877.801 300.385C875.941 297.351 873.496 294.972 870.465 293.248C867.435 291.524 864.025 290.662 860.237 290.662Z" fill="#E1D3C1"/>
<path d="M969.097 286.111C975.778 286.111 981.013 288.076 984.801 292.007C988.658 295.937 990.587 301.592 990.587 308.97V340.519H985.421V309.384C985.421 303.316 983.94 298.696 980.979 295.523C978.017 292.351 973.884 290.765 968.581 290.765C962.52 290.765 957.698 292.662 954.117 296.454C950.604 300.247 948.848 305.35 948.848 311.763V340.519H943.682V309.384C943.682 303.316 942.201 298.696 939.24 295.523C936.278 292.351 932.145 290.765 926.842 290.765C920.781 290.765 915.959 292.662 912.378 296.454C908.865 300.247 907.109 305.35 907.109 311.763V340.519H901.943V286.524H906.902V298.109C908.693 294.317 911.345 291.386 914.857 289.317C918.439 287.179 922.675 286.111 927.565 286.111C932.455 286.111 936.588 287.214 939.963 289.421C943.407 291.627 945.852 294.868 947.298 299.144C949.089 295.144 951.878 291.972 955.667 289.627C959.524 287.283 964.001 286.111 969.097 286.111Z" fill="#E1D3C1"/>
<path d="M1057.58 314.763H1011.19C1011.33 318.97 1012.4 322.728 1014.39 326.038C1016.39 329.279 1019.08 331.796 1022.45 333.589C1025.9 335.382 1029.75 336.278 1034.02 336.278C1037.54 336.278 1040.77 335.658 1043.73 334.416C1046.77 333.106 1049.28 331.21 1051.28 328.727L1054.27 332.141C1051.93 334.968 1048.97 337.14 1045.39 338.657C1041.88 340.174 1038.05 340.933 1033.92 340.933C1028.55 340.933 1023.76 339.761 1019.56 337.416C1015.36 335.071 1012.05 331.83 1009.64 327.693C1007.3 323.555 1006.13 318.832 1006.13 313.522C1006.13 308.281 1007.23 303.592 1009.43 299.454C1011.71 295.248 1014.81 291.972 1018.73 289.627C1022.66 287.283 1027.07 286.111 1031.96 286.111C1036.85 286.111 1041.22 287.283 1045.08 289.627C1049 291.903 1052.07 295.11 1054.27 299.247C1056.55 303.385 1057.68 308.074 1057.68 313.315L1057.58 314.763ZM1031.96 290.662C1028.17 290.662 1024.76 291.524 1021.73 293.248C1018.7 294.903 1016.25 297.282 1014.39 300.385C1012.6 303.419 1011.57 306.867 1011.29 310.729H1052.62C1052.41 306.867 1051.38 303.419 1049.52 300.385C1047.66 297.351 1045.22 294.972 1042.19 293.248C1039.15 291.524 1035.74 290.662 1031.96 290.662Z" fill="#E1D3C1"/>
<path d="M1100.01 286.111C1106.76 286.111 1112.1 288.076 1116.02 292.007C1119.95 295.937 1121.91 301.592 1121.91 308.97V340.519H1116.74V309.384C1116.74 303.316 1115.2 298.696 1112.1 295.523C1109.07 292.351 1104.79 290.765 1099.28 290.765C1092.95 290.765 1087.95 292.662 1084.3 296.454C1080.65 300.247 1078.83 305.35 1078.83 311.763V340.519H1073.66V286.524H1078.62V298.213C1080.48 294.42 1083.24 291.455 1086.89 289.317C1090.61 287.179 1094.98 286.111 1100.01 286.111Z" fill="#E1D3C1"/>
<path d="M1169.94 337.106C1168.63 338.347 1166.97 339.312 1164.98 340.002C1163.05 340.623 1161.02 340.933 1158.88 340.933C1154.2 340.933 1150.58 339.657 1148.03 337.106C1145.49 334.485 1144.21 330.865 1144.21 326.245V290.972H1134.29V286.524H1144.21V274.732H1149.38V286.524H1166.53V290.972H1149.38V325.728C1149.38 329.244 1150.2 331.934 1151.86 333.796C1153.58 335.589 1156.09 336.485 1159.4 336.485C1162.77 336.485 1165.56 335.485 1167.77 333.485L1169.94 337.106Z" fill="#E1D3C1"/>
<path d="M1231.54 341.036C1226.24 341.036 1221.17 340.14 1216.35 338.347C1211.6 336.485 1207.88 334.106 1205.19 331.21L1207.57 327.279C1210.12 329.968 1213.53 332.175 1217.8 333.899C1222.14 335.554 1226.68 336.382 1231.44 336.382C1238.32 336.382 1243.52 335.071 1247.04 332.451C1250.55 329.831 1252.31 326.417 1252.31 322.211C1252.31 318.97 1251.38 316.384 1249.52 314.453C1247.66 312.522 1245.35 311.039 1242.59 310.005C1239.84 308.97 1236.12 307.902 1231.44 306.798C1226.13 305.488 1221.86 304.212 1218.63 302.971C1215.46 301.73 1212.74 299.833 1210.46 297.282C1208.26 294.661 1207.16 291.179 1207.16 286.835C1207.16 283.318 1208.09 280.111 1209.95 277.215C1211.81 274.25 1214.63 271.905 1218.42 270.181C1222.28 268.457 1227.06 267.595 1232.78 267.595C1236.77 267.595 1240.7 268.181 1244.56 269.354C1248.41 270.526 1251.76 272.112 1254.58 274.112L1252.62 278.353C1249.72 276.353 1246.52 274.836 1243.01 273.801C1239.56 272.767 1236.15 272.25 1232.78 272.25C1226.1 272.25 1221.04 273.595 1217.59 276.284C1214.15 278.973 1212.43 282.456 1212.43 286.731C1212.43 289.972 1213.36 292.558 1215.22 294.489C1217.08 296.42 1219.38 297.903 1222.14 298.937C1224.89 299.971 1228.65 301.075 1233.4 302.247C1238.7 303.557 1242.94 304.833 1246.11 306.074C1249.28 307.315 1251.96 309.212 1254.17 311.763C1256.44 314.246 1257.58 317.625 1257.58 321.9C1257.58 325.417 1256.61 328.624 1254.68 331.52C1252.82 334.416 1249.93 336.726 1246 338.45C1242.08 340.174 1237.26 341.036 1231.54 341.036Z" fill="#E1D3C1"/>
<path d="M1316.11 286.524L1288.43 347.863C1286.36 352.621 1283.95 356 1281.19 358C1278.51 360 1275.3 361 1271.59 361C1269.11 361 1266.76 360.586 1264.56 359.759C1262.42 358.931 1260.6 357.724 1259.08 356.138L1261.67 352.208C1264.42 355.035 1267.76 356.449 1271.69 356.449C1274.31 356.449 1276.54 355.725 1278.4 354.276C1280.26 352.828 1281.99 350.346 1283.57 346.829L1286.46 340.312L1262.18 286.524H1267.66L1289.25 334.83L1310.84 286.524H1316.11Z" fill="#E1D3C1"/>
<path d="M1340.44 340.933C1336.1 340.933 1331.97 340.278 1328.04 338.968C1324.12 337.657 1321.05 336.002 1318.85 334.003L1321.22 329.865C1323.43 331.727 1326.25 333.278 1329.7 334.52C1333.21 335.761 1336.86 336.382 1340.65 336.382C1346.09 336.382 1350.08 335.485 1352.63 333.692C1355.25 331.899 1356.56 329.417 1356.56 326.245C1356.56 323.969 1355.83 322.176 1354.39 320.866C1353.01 319.556 1351.29 318.59 1349.22 317.97C1347.16 317.349 1344.3 316.694 1340.65 316.004C1336.38 315.246 1332.93 314.418 1330.32 313.522C1327.7 312.625 1325.46 311.177 1323.6 309.177C1321.74 307.178 1320.81 304.419 1320.81 300.902C1320.81 296.627 1322.57 293.11 1326.08 290.352C1329.66 287.524 1334.72 286.111 1341.27 286.111C1344.71 286.111 1348.12 286.593 1351.49 287.559C1354.87 288.524 1357.62 289.8 1359.76 291.386L1357.38 295.523C1355.18 293.937 1352.67 292.731 1349.84 291.903C1347.02 291.076 1344.13 290.662 1341.16 290.662C1336.14 290.662 1332.35 291.593 1329.8 293.455C1327.25 295.317 1325.98 297.765 1325.98 300.799C1325.98 303.212 1326.7 305.109 1328.15 306.488C1329.59 307.798 1331.35 308.798 1333.41 309.488C1335.55 310.108 1338.51 310.798 1342.3 311.556C1346.5 312.315 1349.88 313.142 1352.42 314.039C1355.04 314.866 1357.25 316.246 1359.04 318.176C1360.83 320.107 1361.72 322.762 1361.72 326.141C1361.72 330.624 1359.86 334.209 1356.14 336.899C1352.42 339.588 1347.19 340.933 1340.44 340.933Z" fill="#E1D3C1"/>
<path d="M1402.9 337.106C1401.59 338.347 1399.94 339.312 1397.94 340.002C1396.01 340.623 1393.98 340.933 1391.84 340.933C1387.16 340.933 1383.54 339.657 1381 337.106C1378.45 334.485 1377.17 330.865 1377.17 326.245V290.972H1367.25V286.524H1377.17V274.732H1382.34V286.524H1399.49V290.972H1382.34V325.728C1382.34 329.244 1383.16 331.934 1384.82 333.796C1386.54 335.589 1389.05 336.485 1392.36 336.485C1395.73 336.485 1398.52 335.485 1400.73 333.485L1402.9 337.106Z" fill="#E1D3C1"/>
<path d="M1460.95 314.763H1414.56C1414.7 318.97 1415.77 322.728 1417.76 326.038C1419.76 329.279 1422.45 331.796 1425.82 333.589C1429.27 335.382 1433.12 336.278 1437.39 336.278C1440.91 336.278 1444.14 335.658 1447.1 334.416C1450.13 333.106 1452.65 331.21 1454.65 328.727L1457.64 332.141C1455.3 334.968 1452.34 337.14 1448.76 338.657C1445.24 340.174 1441.42 340.933 1437.29 340.933C1431.92 340.933 1427.13 339.761 1422.93 337.416C1418.73 335.071 1415.42 331.83 1413.01 327.693C1410.67 323.555 1409.5 318.832 1409.5 313.522C1409.5 308.281 1410.6 303.592 1412.8 299.454C1415.08 295.248 1418.18 291.972 1422.1 289.627C1426.03 287.283 1430.44 286.111 1435.33 286.111C1440.22 286.111 1444.59 287.283 1448.45 289.627C1452.37 291.903 1455.44 295.11 1457.64 299.247C1459.92 303.385 1461.05 308.074 1461.05 313.315L1460.95 314.763ZM1435.33 290.662C1431.54 290.662 1428.13 291.524 1425.1 293.248C1422.07 294.903 1419.62 297.282 1417.76 300.385C1415.97 303.419 1414.94 306.867 1414.66 310.729H1455.99C1455.78 306.867 1454.75 303.419 1452.89 300.385C1451.03 297.351 1448.58 294.972 1445.55 293.248C1442.52 291.524 1439.11 290.662 1435.33 290.662Z" fill="#E1D3C1"/>
<path d="M1544.19 286.111C1550.87 286.111 1556.1 288.076 1559.89 292.007C1563.75 295.937 1565.68 301.592 1565.68 308.97V340.519H1560.51V309.384C1560.51 303.316 1559.03 298.696 1556.07 295.523C1553.11 292.351 1548.97 290.765 1543.67 290.765C1537.61 290.765 1532.79 292.662 1529.21 296.454C1525.69 300.247 1523.94 305.35 1523.94 311.763V340.519H1518.77V309.384C1518.77 303.316 1517.29 298.696 1514.33 295.523C1511.37 292.351 1507.23 290.765 1501.93 290.765C1495.87 290.765 1491.05 292.662 1487.47 296.454C1483.95 300.247 1482.2 305.35 1482.2 311.763V340.519H1477.03V286.524H1481.99V298.109C1483.78 294.317 1486.43 291.386 1489.95 289.317C1493.53 287.179 1497.76 286.111 1502.65 286.111C1507.54 286.111 1511.68 287.214 1515.05 289.421C1518.5 291.627 1520.94 294.868 1522.39 299.144C1524.18 295.144 1526.97 291.972 1530.76 289.627C1534.61 287.283 1539.09 286.111 1544.19 286.111Z" fill="#E1D3C1"/>
</svg>
